# xmcd
#
# Track frame offsets: 
#        150
#        18923
#        31625
#        43441
#        56473
#        81225
#        99071
#        115036
#        129829
#        137853
#        152864
#
# Disc length: 2242 seconds
#
# Revision: 0
# Processed by: cddbd v1.5.2PL0 Copyright (c) Steve Scherf et al.
# Submitted via: ExactAudioCopyFreeDBPlugin 1.0
#
DISCID=8008c00b
DTITLE=Virgis Stakenas - Vakaras 1986 CD-03
DYEAR=1986
DGENRE=Country
TTITLE0=Vakaras
TTITLE1=Sentimentai
TTITLE2=Jeigu tu ziedas
TTITLE3=Vienatve
TTITLE4=Patirtis
TTITLE5=Svente
TTITLE6=Atsiskyrelis
TTITLE7=Antanas
TTITLE8=Mano senelis Anupras
TTITLE9=Rugpjutis
TTITLE10=Pokalbis su savo sazine
EXTD=
EXTT0=
EXTT1=
EXTT2=
EXTT3=
EXTT4=
EXTT5=
EXTT6=
EXTT7=
EXTT8=
EXTT9=
EXTT10=
PLAYORDER=
